Coordinates
version=1
nRows=30
nColumns=34
inDegrees=no

Units are S.I. units (second, meters, Newtons, ...)
If the header above contains a line with 'inDegrees', this indicates whether rotational values are in degrees (yes) or radians (no).

endheader
time	pelvis_tilt	pelvis_list	pelvis_rotation	pelvis_tx	pelvis_ty	pelvis_tz	hip_flexion_r	hip_adduction_r	hip_rotation_r	knee_angle_r	ankle_angle_r	subtalar_angle_r	mtp_angle_r	hip_flexion_l	hip_adduction_l	hip_rotation_l	knee_angle_l	ankle_angle_l	subtalar_angle_l	mtp_angle_l	lumbar_extension	lumbar_bending	lumbar_rotation	arm_flex_r	arm_add_r	arm_rot_r	elbow_flex_r	pro_sup_r	arm_flex_l	arm_add_l	arm_rot_l	elbow_flex_l	pro_sup_l
1.9	-0.0658617	-0.0108531	0.049898	-0.196806	1.53435	-0.592541	0.255315	-0.0941166	-0.303698	0.442327	-0.538098	0.0109651	-0.0283041	0.273727	-0.103777	-0.197926	0.507664	-0.417811	0.0242872	-0.0238461	-0.216274	-0.00466562	-0.00434732	0.190446	-0.823304	-0.736031	1.7542	1.54948	0.271767	-0.750585	-0.341488	1.46098	1.66595
1.91	-0.0646074	-0.013428	0.0515991	-0.196929	1.53683	-0.592632	0.247386	-0.0902234	-0.30986	0.430245	-0.5264	0.0179512	-0.0283143	0.269018	-0.106786	-0.201878	0.494805	-0.409007	0.0313061	-0.0238483	-0.216136	-0.00283729	-0.00757729	0.155547	-0.799728	-0.740736	1.74748	1.56404	0.250305	-0.72779	-0.340688	1.41387	1.66603
1.92	-0.0631579	-0.0161546	0.0527227	-0.197033	1.5383	-0.592677	0.239178	-0.0861821	-0.316881	0.418192	-0.516122	0.025244	-0.0283245	0.263916	-0.110706	-0.208631	0.481854	-0.406683	0.0392942	-0.0238506	-0.216221	-0.000844447	-0.0106661	0.124129	-0.777612	-0.741385	1.73868	1.57936	0.229528	-0.705489	-0.340221	1.36756	1.66567
1.93	-0.0616525	-0.018934	0.0534692	-0.197104	1.53876	-0.592691	0.230817	-0.082104	-0.324539	0.406185	-0.50788	0.0326652	-0.0283347	0.258572	-0.115247	-0.217389	0.468772	-0.410186	0.0479307	-0.0238529	-0.216355	0.00120085	-0.0137626	0.0950044	-0.757127	-0.738493	1.72833	1.59433	0.209006	-0.683742	-0.33999	1.3227	1.66447
1.94	-0.0602247	-0.0216553	0.0540235	-0.197134	1.5382	-0.592688	0.222398	-0.0780951	-0.332532	0.394156	-0.502027	0.039993	-0.0283448	0.253123	-0.120083	-0.227234	0.455532	-0.418251	0.0570888	-0.0238552	-0.216372	0.00318277	-0.0169458	0.0670191	-0.738405	-0.732559	1.71701	1.60811	0.188446	-0.662584	-0.33975	1.27992	1.66217
1.95	-0.0589764	-0.0242057	0.0545144	-0.197114	1.5366	-0.592685	0.213991	-0.0742384	-0.340523	0.381993	-0.498608	0.0470185	-0.028355	0.247679	-0.124905	-0.237271	0.442128	-0.429239	0.0667462	-0.0238576	-0.216138	0.00499658	-0.0202063	0.0391402	-0.721527	-0.724098	1.70529	1.62029	0.167642	-0.642021	-0.339244	1.23985	1.65867
1.96	-0.0579425	-0.0264905	0.054995	-0.197036	1.53396	-0.592694	0.205643	-0.0705931	-0.348181	0.369586	-0.497352	0.0535997	-0.0283652	0.242317	-0.129457	-0.246766	0.42859	-0.441416	0.0768663	-0.0238599	-0.215565	0.00655639	-0.0234532	0.0105194	-0.706504	-0.713653	1.69372	1.63091	0.14643	-0.62203	-0.338313	1.20315	1.65412
1.97	-0.0571051	-0.0284678	0.0554486	-0.196901	1.53027	-0.592719	0.197377	-0.0672019	-0.355228	0.356873	-0.497716	0.0596968	-0.0283754	0.237075	-0.133554	-0.255256	0.414988	-0.453229	0.0872981	-0.0238623	-0.214629	0.00778684	-0.0265388	-0.019471	-0.693251	-0.701791	1.68278	1.6403	0.124635	-0.602553	-0.336956	1.17048	1.64883
1.98	-0.0564307	-0.0301189	0.0558072	-0.196711	1.52553	-0.592761	0.189193	-0.0640846	-0.361472	0.343856	-0.498971	0.065374	-0.0283856	0.231945	-0.137104	-0.262597	0.401436	-0.463515	0.0977278	-0.0238647	-0.21337	0.00863807	-0.0292893	-0.0512357	-0.681568	-0.689069	1.67294	1.64886	0.102043	-0.583514	-0.335338	1.14252	1.64324
1.99	-0.0558689	-0.0314444	0.055972	-0.196473	1.51975	-0.592811	0.181073	-0.0612378	-0.366826	0.330605	-0.500327	0.0707722	-0.0283958	0.226893	-0.140106	-0.268958	0.38808	-0.471613	0.107703	-0.0238672	-0.211872	0.00909057	-0.0315339	-0.084986	-0.671136	-0.676017	1.66459	1.65694	0.0783992	-0.564821	-0.333734	1.11995	1.63771
2	-0.0553621	-0.0324699	0.0558371	-0.196189	1.51293	-0.592858	0.173006	-0.0586376	-0.371316	0.317246	-0.50105	0.0760676	-0.028406	0.221881	-0.142638	-0.274749	0.375089	-0.477359	0.116726	-0.0238697	-0.210225	0.00915535	-0.0331226	-0.12079	-0.661534	-0.663102	1.65807	1.66474	0.053428	-0.546383	-0.332455	1.10334	1.63245
2.01	-0.0548659	-0.0332469	0.055312	-0.195859	1.50507	-0.592894	0.164998	-0.0562479	-0.375071	0.303952	-0.500568	0.0814383	-0.0284162	0.216892	-0.14483	-0.280512	0.362632	-0.480989	0.124383	-0.0238723	-0.208498	0.00887198	-0.0339379	-0.158627	-0.652263	-0.650697	1.65367	1.67216	0.0268639	-0.528107	-0.331788	1.09316	1.62751
2.02	-0.0543683	-0.0338473	0.0543412	-0.195486	1.49617	-0.592909	0.157093	-0.0540336	-0.378309	0.290931	-0.49853	0.0870424	-0.0284265	0.211931	-0.146835	-0.286778	0.350859	-0.482973	0.130469	-0.0238749	-0.20672	0.00830278	-0.0339079	-0.198425	-0.642791	-0.639052	1.65162	1.67877	-0.00151212	-0.509901	-0.331956	1.08965	1.62276
2.03	-0.0539006	-0.0343473	0.0529169	-0.195072	1.48624	-0.592898	0.149363	-0.0519739	-0.381301	0.278393	-0.494827	0.0930031	-0.0284367	0.207028	-0.148784	-0.293926	0.339872	-0.483847	0.135061	-0.0238775	-0.204881	0.00752036	-0.0330169	-0.240077	-0.632581	-0.628289	1.65207	1.68408	-0.0318496	-0.491669	-0.33311	1.09287	1.61784
2.04	-0.0535245	-0.0348068	0.0510851	-0.194616	1.47526	-0.59286	0.1419	-0.0500749	-0.384326	0.266518	-0.489586	0.0994037	-0.028447	0.202221	-0.150754	-0.302065	0.329696	-0.484073	0.138506	-0.0238801	-0.202936	0.00659	-0.0313088	-0.283443	-0.621121	-0.618402	1.65508	1.68755	-0.0642143	-0.473304	-0.335351	1.10267	1.6122
2.05	-0.0533107	-0.035254	0.0489395	-0.194116	1.46323	-0.5928	0.134791	-0.0483739	-0.387626	0.255419	-0.483138	0.106297	-0.0284573	0.197537	-0.152737	-0.310978	0.320276	-0.483976	0.141344	-0.0238827	-0.200825	0.00555664	-0.0288833	-0.328336	-0.60795	-0.609281	1.66062	1.68871	-0.0985802	-0.45468	-0.338757	1.11868	1.60532
2.06	-0.0533142	-0.0356759	0.0466046	-0.193573	1.45015	-0.592727	0.128097	-0.0469335	-0.391356	0.245119	-0.475977	0.113725	-0.0284675	0.192987	-0.154653	-0.320138	0.311478	-0.483743	0.14419	-0.0238854	-0.19849	0.00444219	-0.0258868	-0.374504	-0.592675	-0.60075	1.66855	1.68732	-0.134828	-0.435646	-0.343415	1.14037	1.59692
2.07	-0.0535589	-0.0360298	0.044218	-0.192986	1.43602	-0.592656	0.12184	-0.0458281	-0.395557	0.235545	-0.468719	0.121738	-0.0284778	0.18856	-0.156369	-0.328799	0.303133	-0.483476	0.147625	-0.023888	-0.195903	0.0032486	-0.0224967	-0.421604	-0.574982	-0.592619	1.67859	1.68346	-0.172755	-0.416024	-0.349433	1.16702	1.58706
2.08	-0.0540287	-0.0362649	0.0419158	-0.19237	1.42084	-0.592603	0.115979	-0.045123	-0.400153	0.226535	-0.462058	0.130402	-0.0284881	0.184225	-0.157749	-0.336147	0.295089	-0.483277	0.152115	-0.0238907	-0.193087	0.00197159	-0.0189059	-0.469191	-0.554641	-0.584721	1.69037	1.67767	-0.212091	-0.395617	-0.356928	1.19777	1.57627
2.09	-0.0546609	-0.0363437	0.0398197	-0.191731	1.40462	-0.592581	0.110405	-0.0448563	-0.40499	0.217859	-0.456709	0.139806	-0.0284984	0.179951	-0.158698	-0.341438	0.287287	-0.483298	0.157943	-0.0238933	-0.190134	0.000620526	-0.0153062	-0.516718	-0.531515	-0.576939	1.70337	1.67094	-0.252513	-0.374225	-0.366009	1.23171	1.56545
2.1	-0.0553445	-0.0362563	0.038027	-0.191086	1.38737	-0.592602	0.104959	-0.045033	-0.409881	0.209295	-0.453332	0.150028	-0.0285086	0.175728	-0.15919	-0.344118	0.279837	-0.483738	0.165167	-0.023896	-0.187211	-0.000767088	-0.0118752	-0.563558	-0.505559	-0.569236	1.71701	1.66451	-0.293667	-0.351652	-0.376743	1.2679	1.5557
2.11	-0.0559217	-0.0360214	0.0365991	-0.19046	1.36912	-0.592677	0.0994922	-0.0456365	-0.41462	0.200763	-0.452388	0.161046	-0.0285189	0.1716	-0.159283	-0.343882	0.273094	-0.484744	0.1736	-0.0238987	-0.184549	-0.00212405	-0.00876403	-0.609035	-0.476822	-0.561653	1.73068	1.65957	-0.335171	-0.327733	-0.389128	1.30547	1.54797
2.12	-0.0561382	-0.0356588	0.0355554	-0.189893	1.34988	-0.592813	0.0939651	-0.0466443	-0.418954	0.192494	-0.453939	0.172613	-0.0285292	0.167716	-0.159104	-0.340685	0.267715	-0.486204	0.182837	-0.0239013	-0.182406	-0.00335528	-0.00608316	-0.652453	-0.445443	-0.554323	1.74376	1.65701	-0.376621	-0.302357	-0.403076	1.34367	1.54281
2.13	-0.0557981	-0.0352171	0.0348759	-0.189438	1.32966	-0.593012	0.0885021	-0.0480516	-0.422539	0.185198	-0.457402	0.184174	-0.0285395	0.164334	-0.158832	-0.33471	0.264728	-0.487489	0.192302	-0.023904	-0.181076	-0.00436012	-0.00389137	-0.69312	-0.411652	-0.547465	1.75572	1.65733	-0.417581	-0.275499	-0.418409	1.38189	1.5403
2.14	-0.0548073	-0.0347771	0.0344897	-0.189153	1.30848	-0.593274	0.0834398	-0.0498764	-0.424919	0.180164	-0.461287	0.194867	-0.0285498	0.161841	-0.158664	-0.326276	0.265543	-0.48719	0.201323	-0.0239068	-0.180872	-0.00503645	-0.00220163	-0.730359	-0.375775	-0.541368	1.76604	1.66065	-0.457558	-0.247249	-0.434848	1.41963	1.54005
2.15	-0.0531471	-0.0344312	0.034289	-0.189104	1.28635	-0.593593	0.0793639	-0.0521453	-0.425505	0.179256	-0.462992	0.203649	-0.0285601	0.160769	-0.158809	-0.315743	0.271899	-0.48295	0.209199	-0.0239096	-0.182068	-0.00527778	-0.000977834	-0.763515	-0.338253	-0.536345	1.77431	1.66675	-0.495977	-0.217845	-0.452012	1.45645	1.54132
2.16	-0.0508698	-0.0342806	0.0341411	-0.189378	1.26325	-0.59396	0.0770961	-0.0548742	-0.42359	0.184809	-0.458726	0.209492	-0.0285704	0.161784	-0.159462	-0.303412	0.285747	-0.471459	0.215296	-0.0239124	-0.184865	-0.00497666	-0.000135044	-0.79196	-0.299665	-0.532669	1.78011	1.67511	-0.532152	-0.187694	-0.469395	1.49187	1.54329
2.17	-0.0481014	-0.0344263	0.0339041	-0.190052	1.23916	-0.594359	0.0776405	-0.0580542	-0.418411	0.1994	-0.443651	0.211638	-0.0285808	0.165639	-0.160789	-0.289477	0.309052	-0.448679	0.21917	-0.0239152	-0.189356	-0.00403476	0.000453063	-0.815091	-0.260739	-0.530502	1.78304	1.68499	-0.565264	-0.157387	-0.48637	1.52533	1.54521
2.18	-0.0450336	-0.0349499	0.0334392	-0.191197	1.21408	-0.594767	0.0820898	-0.0616532	-0.409291	0.225523	-0.41238	0.209816	-0.0285912	0.173098	-0.162903	-0.274041	0.343522	-0.410303	0.220725	-0.023918	-0.195508	-0.00238819	0.000934879	-0.832323	-0.222354	-0.529822	1.78269	1.69546	-0.59436	-0.127681	-0.502217	1.55609	1.54663
2.19	-0.0419014	-0.035887	0.0326202	-0.192877	1.18795	-0.595168	0.0915021	-0.0656404	-0.395834	0.265182	-0.359898	0.204334	-0.0286015	0.184838	-0.165844	-0.257176	0.390287	-0.35247	0.220323	-0.0239209	-0.203164	-4.38341e-05	0.00144924	-0.843081	-0.185516	-0.530375	1.77856	1.70552	-0.61839	-0.0994478	-0.516191	1.5833	1.54743
